<?xml version="1.0" encoding="UTF-8"?>
<svg class="bi bi-bucket-fill" width="16" height="16" fill="currentColor" version="1.1" viewBox="0 0 16 16" xmlns="http://www.w3.org/2000/svg">
 <path d="m8-0.0078125a5.5 5.5 0 0 0-5.4785 5.0078h-0.52148a0.5 0.5 0 0 0-0.49414 0.57422l1.373 9.1484a1.5 1.5 0 0 0 1.4805 1.2773h7.2793a1.5 1.5 0 0 0 1.4824-1.2773l1.373-9.1484a0.5 0.5 0 0 0-0.49414-0.57422h-0.52148a5.5 5.5 0 0 0-5.4785-5.0078zm0 1.0039a4.5 4.5 0 0 1 4.4727 4.0039h-8.9453a4.5 4.5 0 0 1 4.4727-4.0039zm3.2109 5.0039c0.053265 0 0.096996 0.018988 0.13281 0.056641l1.5996 1.5996c0.037653 0.034898 0.056641 0.079547 0.056641 0.13281s-0.018988 0.099066-0.056641 0.13672l-0.26562 0.26367c-0.037653 0.037653-0.081384 0.056641-0.13281 0.056641-0.051429 0-0.097113-0.018988-0.13477-0.056641l-0.40039-0.40039-3.4668 3.4668 0.26758 0.26953-0.53516 0.53516 1.0684 1.0645-0.80078 0.80273c-0.71724 0.71449-1.5684 1.0723-2.5547 1.0723-0.17633 0-0.35401-0.010244-0.53125-0.033203s-0.32938-0.051958-0.45703-0.085938c-0.12857-0.033979-0.2448-0.067582-0.34766-0.10156-0.10286-0.03398-0.17996-0.061944-0.23047-0.083985l-0.080078-0.039062c-0.010102-0.017449-0.022416-0.043227-0.037109-0.078125s-0.041507-0.11085-0.080078-0.22656c-0.038572-0.11571-0.07321-0.23516-0.10352-0.35547-0.030306-0.12031-0.059188-0.27117-0.083984-0.45117s-0.037109-0.3578-0.037109-0.5332c0-0.98633 0.35893-1.8374 1.0762-2.5547l0.79883-0.80078 1.0645 1.0684 0.53516-0.53125 0.26953 0.26367 3.4668-3.4668-0.40039-0.40039c-0.037653-0.037653-0.056641-0.083337-0.056641-0.13477 0-0.051428 0.018988-0.095159 0.056641-0.13281l0.26758-0.26562c0.034898-0.037653 0.079547-0.056641 0.13281-0.056641z"/>
 <g transform="matrix(.010204 0 0 .010204 3.3969 5.398)" fill="#f00" stroke-width="98"></g>
</svg>
